<?xml version="1.0" encoding="UTF-8"?>
<svg version="1.1" xmlns="http://www.w3.org/2000/svg" width="1254" height="1254">
<path d="M0 0 C413.82 0 827.64 0 1254 0 C1254 413.82 1254 827.64 1254 1254 C840.18 1254 426.36 1254 0 1254 C0 840.18 0 426.36 0 0 Z " fill="#FAFAFA" transform="translate(0,0)"/>
<path d="M0 0 C0.90202148 0.17692383 1.80404297 0.35384766 2.73339844 0.53613281 C37.60276284 7.60276284 37.60276284 7.60276284 49 19 C50.04465637 25.16054366 46.95273995 30.19328007 44.3125 35.5625 C43.81919189 36.57538086 43.32588379 37.58826172 42.81762695 38.63183594 C32.0615751 60.26852061 18.37306405 80.84551579 1.59765625 98.28515625 C-0.52969665 100.50847996 -2.52947549 102.76511884 -4.5 105.125 C-21.14688515 124.20704101 -42.93623571 137.71649012 -66.1640625 147.24316406 C-67.83599148 147.93239011 -69.49682514 148.64837723 -71.15625 149.3671875 C-80.36058054 153.18651022 -89.92673126 155.29428478 -99.6237793 157.45239258 C-101.74640618 157.94155852 -103.84239036 158.4882177 -105.9453125 159.0546875 C-110.92184059 160.30924825 -115.97073175 160.85622553 -121.0625 161.4375 C-122.66073608 161.62590454 -122.66073608 161.62590454 -124.29125977 161.81811523 C-130.58127449 162.54397292 -136.87620752 163.19403734 -143.1796875 163.7890625 C-143.86713547 163.85414505 -144.55458344 163.9192276 -145.26286316 163.98628235 C-148.62968917 164.30339495 -151.99687514 164.61197423 -155.36547852 164.90991211 C-162.36173621 165.55073166 -169.15252099 166.42290639 -176 168 C-177.23105469 168.27199219 -178.46210937 168.54398438 -179.73046875 168.82421875 C-193.85241925 172.35071712 -206.31402946 178.21910922 -218 187 C-218.91471069 187.61101562 -218.91471069 187.61101562 -219.84790039 188.234375 C-222.67174942 190.3004472 -224.62946846 191.873443 -225.74365234 195.26098633 C-226.13165357 197.81160499 -226.32688276 200.29781228 -226.4375 202.875 C-226.50130859 203.75414062 -226.56511719 204.63328125 -226.63085938 205.5390625 C-226.78288831 207.69085666 -226.89546874 209.84537611 -227 212 C-226.04222656 211.98839844 -225.08445312 211.97679687 -224.09765625 211.96484375 C-222.75260617 211.95543781 -221.40755391 211.94634073 -220.0625 211.9375 C-218.77472656 211.92589844 -217.48695313 211.91429687 -216.16015625 211.90234375 C-202.07494958 212.04519873 -188.09329893 213.48117818 -174.125 215.1875 C-173.2302597 215.29637543 -172.33551941 215.40525085 -171.41366577 215.51742554 C-156.00071298 217.41829531 -141.05455162 220.13796633 -126 224 C-124.22206055 224.43868408 -124.22206055 224.43868408 -122.40820312 224.88623047 C-96.70120534 231.23235159 -71.86537922 239.48444166 -48 251 C-47.06236816 251.44569336 -46.12473633 251.89138672 -45.15869141 252.35058594 C-9.36652707 269.42348934 24.3204579 292.53845258 53.375 319.5859375 C54.77125261 320.86999124 56.17389429 322.14824981 57.61743164 323.37890625 C63.93169468 328.7633548 69.78108176 334.59497633 75.64477539 340.45947266 C77.42510252 342.23761772 79.21328377 344.00759561 81.00195312 345.77734375 C87.79814357 352.54016086 94.09642935 359.43212906 100 367 C100.88104913 368.09542325 101.76247411 369.1905445 102.64453125 370.28515625 C113.36758351 384.02225563 122.92697555 398.5524152 131 414 C131.63156006 415.19012695 131.63156006 415.19012695 132.27587891 416.40429688 C144.19319082 439.11636996 153.40033076 464.53346035 157 490 C157.20761963 491.43545166 157.20761963 491.43545166 157.41943359 492.89990234 C165.13330539 547.39801787 160.87776277 602.80201988 143 655 C142.48566406 656.52028809 142.48566406 656.52028809 141.9609375 658.07128906 C137.07355315 672.41259763 131.62923358 686.37338217 125 700 C124.5364209 700.95841797 124.0728418 701.91683594 123.59521484 702.90429688 C113.07312158 724.4382039 100.3832287 744.59660951 85 763 C84.54286621 763.55187988 84.08573242 764.10375977 83.61474609 764.67236328 C74.56556756 775.58194554 65.12283018 786.06413549 55.09863281 796.08666992 C53.6279359 797.55955972 52.16546466 799.04030265 50.703125 800.52148438 C44.47043637 806.7908796 37.92518007 812.49936899 31 818 C29.86077227 818.95249147 28.72473334 819.90882742 27.59375 820.87109375 C10.63150768 835.05621132 -8.63326069 847.3730123 -28 858 C-28.82258301 858.45503906 -29.64516602 858.91007812 -30.49267578 859.37890625 C-68.28793233 880.13412676 -107.90557176 893.4818997 -150 902 C-151.23580811 902.25160889 -151.23580811 902.25160889 -152.49658203 902.50830078 C-175.49491217 907.11211907 -198.54179065 908.50341728 -221.93896484 908.39111328 C-225.51935757 908.37408744 -229.0990777 908.3841717 -232.67944717 908.40142536 C-257.94518282 908.50465257 -282.87953943 906.77577171 -307.75 902.0625 C-309.19480796 901.79699416 -310.63971568 901.53203067 -312.0847168 901.26757812 C-329.36924896 898.0787822 -346.15425292 894.01944499 -363 889 C-363.680625 888.79842285 -364.36125 888.5968457 -365.0625 888.38916016 C-371.47290067 886.48440308 -377.75544735 884.39426717 -384 882 C-384.85102295 881.67507568 -385.7020459 881.35015137 -386.57885742 881.01538086 C-402.78552896 874.78182765 -418.47929599 867.78149738 -434 860 C-435.30324219 859.3503125 -435.30324219 859.3503125 -436.6328125 858.6875 C-455.14228426 849.40375241 -472.27020083 838.16474842 -489 826 C-489.55768066 825.5968457 -490.11536133 825.19369141 -490.68994141 824.77832031 C-498.79280079 818.90218179 -506.44518685 812.5547804 -514 806 C-514.6290625 805.4548877 -515.258125 804.90977539 -515.90625 804.34814453 C-532.92954288 789.53111659 -549.01473336 773.74957193 -563 756 C-563.92658766 754.86311575 -564.85509894 753.72779757 -565.78515625 752.59375 C-582.23433687 732.46083422 -596.09151816 710.80251534 -607.3515625 687.33984375 C-608.52351515 684.96538991 -609.7206579 682.72708588 -611.05859375 680.453125 C-612.84678355 677.27252182 -614.18508128 674.2317331 -615.4375 670.8125 C-617.0016217 666.61130726 -618.64054852 662.48149489 -620.4375 658.375 C-629.01889744 637.79033948 -634.21110634 615.41992717 -638.3125 593.5625 C-638.45961426 592.79768311 -638.60672852 592.03286621 -638.75830078 591.24487305 C-641.69325854 574.61172938 -642.33048211 557.80458166 -642.26074219 540.95166016 C-642.24998226 537.86991837 -642.26073741 534.78875607 -642.2734375 531.70703125 C-642.28326075 517.0000202 -641.88769679 502.0944726 -638.59765625 487.69140625 C-638.13021185 485.58637885 -637.73624935 483.46500399 -637.37109375 481.33984375 C-631.6092087 448.95536287 -618.15329486 416.37826535 -600 389 C-599.27562744 387.89205078 -599.27562744 387.89205078 -598.53662109 386.76171875 C-591.63919657 376.25539878 -584.39458211 366.35218629 -576 357 C-575.22269531 356.113125 -574.44539063 355.22625 -573.64453125 354.3125 C-567.79318315 347.76345538 -561.63663162 341.51055429 -555.45254517 335.27731323 C-554.04273377 333.8555947 -552.63690321 332.42993212 -551.23120117 331.00415039 C-545.89132318 325.65758979 -540.39920162 320.70548281 -534.47729492 316.00976562 C-531.99145072 313.99306419 -529.64840807 311.87504246 -527.3125 309.6875 C-520.61068722 303.59878681 -513.31360728 298.3211289 -506 293 C-505.32549805 292.5059668 -504.65099609 292.01193359 -503.95605469 291.50292969 C-465.54152779 263.4556968 -421.87744588 240.86419695 -376 228 C-375.02530762 227.72591309 -374.05061523 227.45182617 -373.04638672 227.16943359 C-339.89454268 218.0186478 -305.44241336 212.28410688 -271 213 C-280.84156252 200.24241895 -292.1290286 188.71768257 -305 179 C-305.82628906 178.36835938 -306.65257812 177.73671875 -307.50390625 177.0859375 C-311.54720202 173.91565998 -311.54720202 173.91565998 -316.41796875 173.0703125 C-319.78265397 174.28180279 -321.77924966 176.1108929 -324.4375 178.5 C-339.08280263 191.20438658 -355.64013086 200.44488797 -375.4375 200.25 C-376.21931641 200.25773438 -377.00113281 200.26546875 -377.80664062 200.2734375 C-398.17963946 200.20647612 -418.70925648 191.27812881 -437.3125 183.8125 C-439.12397896 183.09346819 -440.93582752 182.37536682 -442.74804688 181.65820312 C-445.29374941 180.65053679 -447.83891144 179.64174355 -450.38117981 178.6254425 C-455.23199047 176.68670883 -460.10460615 174.8233013 -465 173 C-466.43279297 172.43539062 -466.43279297 172.43539062 -467.89453125 171.859375 C-476.01747883 168.77113255 -484.2825384 166.49850805 -492.6875 164.3125 C-493.82743408 164.01504883 -494.96736816 163.71759766 -496.1418457 163.41113281 C-503.06111428 161.64459637 -509.94551896 160.10818699 -517 159 C-518.11427872 158.81756241 -518.11427872 158.81756241 -519.25106812 158.63143921 C-532.57814541 156.48143112 -545.60865689 155.52006836 -559.10449219 155.60888672 C-561.99982763 155.62499904 -564.89376806 155.60889817 -567.7890625 155.58984375 C-593.52630303 155.26339687 -593.52630303 155.26339687 -618 162 C-625.31219774 162.58033315 -625.31219774 162.58033315 -628 160.3125 C-629.21081887 157.51248135 -629.41067799 156.03371806 -629 153 C-626.98046875 150.421875 -626.98046875 150.421875 -624.1875 147.75 C-623.69048584 147.27183838 -623.19347168 146.79367676 -622.68139648 146.30102539 C-618.55927065 142.3907572 -614.22541204 138.7617572 -609.78125 135.22265625 C-606.99210258 132.99368872 -604.27940023 130.69123376 -601.5625 128.375 C-577.42828834 108.20929767 -550.65075678 89.99926096 -523 75 C-522.24187012 74.5786377 -521.48374023 74.15727539 -520.70263672 73.72314453 C-504.97663305 64.98430926 -488.46636452 57.51785872 -471 53 C-470.36416992 52.81953125 -469.72833984 52.6390625 -469.07324219 52.453125 C-446.90295353 46.2941335 -418.55307153 45.48533529 -397 54 C-396.28875977 54.27295898 -395.57751953 54.54591797 -394.84472656 54.82714844 C-369.23898335 64.83781294 -350.89346347 81.98158519 -335 104 C-326.55412566 115.30419426 -317.6074185 124.67172893 -306.2265625 133.0390625 C-294.65644159 141.5693125 -283.95042169 151.05592407 -273.46484375 160.87890625 C-270.76328475 163.20370267 -267.99917908 165.08035127 -265 167 C-265.03480469 166.37738281 -265.06960938 165.75476563 -265.10546875 165.11328125 C-266.23811019 126.44166625 -247.97535461 90.62245689 -222 63 C-204.41043332 44.94451921 -183.67291083 31.71891619 -161 21 C-160.0716333 20.55575684 -160.0716333 20.55575684 -159.12451172 20.10253906 C-140.03475328 11.04966393 -119.71915214 4.94933695 -99 1 C-98.03400879 0.80390137 -97.06801758 0.60780273 -96.07275391 0.40576172 C-65.58986983 -5.61792017 -30.5387461 -6.11247841 0 0 Z " fill="#FD9548" transform="translate(878,181)"/>
<path d="M0 0 C0.90202148 0.17692383 1.80404297 0.35384766 2.73339844 0.53613281 C37.60276284 7.60276284 37.60276284 7.60276284 49 19 C50.04465637 25.16054366 46.95273995 30.19328007 44.3125 35.5625 C43.81919189 36.57538086 43.32588379 37.58826172 42.81762695 38.63183594 C32.0615751 60.26852061 18.37306405 80.84551579 1.59765625 98.28515625 C-0.52969665 100.50847996 -2.52947549 102.76511884 -4.5 105.125 C-21.14688515 124.20704101 -42.93623571 137.71649012 -66.1640625 147.24316406 C-67.83599148 147.93239011 -69.49682514 148.64837723 -71.15625 149.3671875 C-80.36058054 153.18651022 -89.92673126 155.29428478 -99.6237793 157.45239258 C-101.74640618 157.94155852 -103.84239036 158.4882177 -105.9453125 159.0546875 C-110.92184059 160.30924825 -115.97073175 160.85622553 -121.0625 161.4375 C-122.66073608 161.62590454 -122.66073608 161.62590454 -124.29125977 161.81811523 C-130.58127449 162.54397292 -136.87620752 163.19403734 -143.1796875 163.7890625 C-143.86713547 163.85414505 -144.55458344 163.9192276 -145.26286316 163.98628235 C-148.62968917 164.30339495 -151.99687514 164.61197423 -155.36547852 164.90991211 C-162.36173621 165.55073166 -169.15252099 166.42290639 -176 168 C-177.23105469 168.27199219 -178.46210937 168.54398438 -179.73046875 168.82421875 C-193.85241925 172.35071712 -206.31402946 178.21910922 -218 187 C-218.91471069 187.61101562 -218.91471069 187.61101562 -219.84790039 188.234375 C-222.67174942 190.3004472 -224.62946846 191.873443 -225.74365234 195.26098633 C-226.13165357 197.81160499 -226.32688276 200.29781228 -226.4375 202.875 C-226.50130859 203.75414062 -226.56511719 204.63328125 -226.63085938 205.5390625 C-226.78288831 207.69085666 -226.89546874 209.84537611 -227 212 C-226.04222656 211.98839844 -225.08445312 211.97679687 -224.09765625 211.96484375 C-222.75260617 211.95543781 -221.40755391 211.94634073 -220.0625 211.9375 C-218.77472656 211.92589844 -217.48695313 211.91429687 -216.16015625 211.90234375 C-202.07494958 212.04519873 -188.09329893 213.48117818 -174.125 215.1875 C-173.2302597 215.29637543 -172.33551941 215.40525085 -171.41366577 215.51742554 C-156.00071298 217.41829531 -141.05455162 220.13796633 -126 224 C-124.22206055 224.43868408 -124.22206055 224.43868408 -122.40820312 224.88623047 C-96.70120534 231.23235159 -71.86537922 239.48444166 -48 251 C-47.06236816 251.44569336 -46.12473633 251.89138672 -45.15869141 252.35058594 C-9.36652707 269.42348934 24.3204579 292.53845258 53.375 319.5859375 C54.77125261 320.86999124 56.17389429 322.14824981 57.61743164 323.37890625 C63.93169468 328.7633548 69.78108176 334.59497633 75.64477539 340.45947266 C77.42510252 342.23761772 79.21328377 344.00759561 81.00195312 345.77734375 C87.79814357 352.54016086 94.09642935 359.43212906 100 367 C100.88104913 368.09542325 101.76247411 369.1905445 102.64453125 370.28515625 C113.36758351 384.02225563 122.92697555 398.5524152 131 414 C131.63156006 415.19012695 131.63156006 415.19012695 132.27587891 416.40429688 C144.19319082 439.11636996 153.40033076 464.53346035 157 490 C157.20761963 491.43545166 157.20761963 491.43545166 157.41943359 492.89990234 C165.13330539 547.39801787 160.87776277 602.80201988 143 655 C142.48566406 656.52028809 142.48566406 656.52028809 141.9609375 658.07128906 C137.07355315 672.41259763 131.62923358 686.37338217 125 700 C124.5364209 700.95841797 124.0728418 701.91683594 123.59521484 702.90429688 C113.07312158 724.4382039 100.3832287 744.59660951 85 763 C84.54286621 763.55187988 84.08573242 764.10375977 83.61474609 764.67236328 C74.56556756 775.58194554 65.12283018 786.06413549 55.09863281 796.08666992 C53.6279359 797.55955972 52.16546466 799.04030265 50.703125 800.52148438 C44.47043637 806.7908796 37.92518007 812.49936899 31 818 C29.86077227 818.95249147 28.72473334 819.90882742 27.59375 820.87109375 C10.63150768 835.05621132 -8.63326069 847.3730123 -28 858 C-28.82258301 858.45503906 -29.64516602 858.91007812 -30.49267578 859.37890625 C-68.28793233 880.13412676 -107.90557176 893.4818997 -150 902 C-151.23580811 902.25160889 -151.23580811 902.25160889 -152.49658203 902.50830078 C-175.49491217 907.11211907 -198.54179065 908.50341728 -221.93896484 908.39111328 C-225.51935757 908.37408744 -229.0990777 908.3841717 -232.67944717 908.40142536 C-257.94518282 908.50465257 -282.87953943 906.77577171 -307.75 902.0625 C-309.19480796 901.79699416 -310.63971568 901.53203067 -312.0847168 901.26757812 C-329.36924896 898.0787822 -346.15425292 894.01944499 -363 889 C-363.680625 888.79842285 -364.36125 888.5968457 -365.0625 888.38916016 C-371.47290067 886.48440308 -377.75544735 884.39426717 -384 882 C-384.85102295 881.67507568 -385.7020459 881.35015137 -386.57885742 881.01538086 C-402.78552896 874.78182765 -418.47929599 867.78149738 -434 860 C-435.30324219 859.3503125 -435.30324219 859.3503125 -436.6328125 858.6875 C-455.14228426 849.40375241 -472.27020083 838.16474842 -489 826 C-489.55768066 825.5968457 -490.11536133 825.19369141 -490.68994141 824.77832031 C-498.79280079 818.90218179 -506.44518685 812.5547804 -514 806 C-514.6290625 805.4548877 -515.258125 804.90977539 -515.90625 804.34814453 C-532.92954288 789.53111659 -549.01473336 773.74957193 -563 756 C-563.92658766 754.86311575 -564.85509894 753.72779757 -565.78515625 752.59375 C-582.23433687 732.46083422 -596.09151816 710.80251534 -607.3515625 687.33984375 C-608.52351515 684.96538991 -609.7206579 682.72708588 -611.05859375 680.453125 C-612.84678355 677.27252182 -614.18508128 674.2317331 -615.4375 670.8125 C-617.0016217 666.61130726 -618.64054852 662.48149489 -620.4375 658.375 C-629.01889744 637.79033948 -634.21110634 615.41992717 -638.3125 593.5625 C-638.45961426 592.79768311 -638.60672852 592.03286621 -638.75830078 591.24487305 C-641.69325854 574.61172938 -642.33048211 557.80458166 -642.26074219 540.95166016 C-642.24998226 537.86991837 -642.26073741 534.78875607 -642.2734375 531.70703125 C-642.28326075 517.0000202 -641.88769679 502.0944726 -638.59765625 487.69140625 C-638.13021185 485.58637885 -637.73624935 483.46500399 -637.37109375 481.33984375 C-631.6092087 448.95536287 -618.15329486 416.37826535 -600 389 C-599.27562744 387.89205078 -599.27562744 387.89205078 -598.53662109 386.76171875 C-591.63919657 376.25539878 -584.39458211 366.35218629 -576 357 C-575.22269531 356.113125 -574.44539063 355.22625 -573.64453125 354.3125 C-567.79318315 347.76345538 -561.63663162 341.51055429 -555.45254517 335.27731323 C-554.04273377 333.8555947 -552.63690321 332.42993212 -551.23120117 331.00415039 C-545.89132318 325.65758979 -540.39920162 320.70548281 -534.47729492 316.00976562 C-531.99145072 313.99306419 -529.64840807 311.87504246 -527.3125 309.6875 C-520.61068722 303.59878681 -513.31360728 298.3211289 -506 293 C-505.32549805 292.5059668 -504.65099609 292.01193359 -503.95605469 291.50292969 C-465.54152779 263.4556968 -421.87744588 240.86419695 -376 228 C-375.02530762 227.72591309 -374.05061523 227.45182617 -373.04638672 227.16943359 C-339.89454268 218.0186478 -305.44241336 212.28410688 -271 213 C-280.84156252 200.24241895 -292.1290286 188.71768257 -305 179 C-305.82628906 178.36835938 -306.65257812 177.73671875 -307.50390625 177.0859375 C-311.54720202 173.91565998 -311.54720202 173.91565998 -316.41796875 173.0703125 C-319.78265397 174.28180279 -321.77924966 176.1108929 -324.4375 178.5 C-339.08280263 191.20438658 -355.64013086 200.44488797 -375.4375 200.25 C-376.21931641 200.25773438 -377.00113281 200.26546875 -377.80664062 200.2734375 C-398.17963946 200.20647612 -418.70925648 191.27812881 -437.3125 183.8125 C-439.12397896 183.09346819 -440.93582752 182.37536682 -442.74804688 181.65820312 C-445.29374941 180.65053679 -447.83891144 179.64174355 -450.38117981 178.6254425 C-455.23199047 176.68670883 -460.10460615 174.8233013 -465 173 C-466.43279297 172.43539062 -466.43279297 172.43539062 -467.89453125 171.859375 C-476.01747883 168.77113255 -484.2825384 166.49850805 -492.6875 164.3125 C-493.82743408 164.01504883 -494.96736816 163.71759766 -496.1418457 163.41113281 C-503.06111428 161.64459637 -509.94551896 160.10818699 -517 159 C-518.11427872 158.81756241 -518.11427872 158.81756241 -519.25106812 158.63143921 C-532.57814541 156.48143112 -545.60865689 155.52006836 -559.10449219 155.60888672 C-561.99982763 155.62499904 -564.89376806 155.60889817 -567.7890625 155.58984375 C-593.52630303 155.26339687 -593.52630303 155.26339687 -618 162 C-625.31219774 162.58033315 -625.31219774 162.58033315 -628 160.3125 C-629.21081887 157.51248135 -629.41067799 156.03371806 -629 153 C-626.98046875 150.421875 -626.98046875 150.421875 -624.1875 147.75 C-623.69048584 147.27183838 -623.19347168 146.79367676 -622.68139648 146.30102539 C-618.55927065 142.3907572 -614.22541204 138.7617572 -609.78125 135.22265625 C-606.99210258 132.99368872 -604.27940023 130.69123376 -601.5625 128.375 C-577.42828834 108.20929767 -550.65075678 89.99926096 -523 75 C-522.24187012 74.5786377 -521.48374023 74.15727539 -520.70263672 73.72314453 C-504.97663305 64.98430926 -488.46636452 57.51785872 -471 53 C-470.36416992 52.81953125 -469.72833984 52.6390625 -469.07324219 52.453125 C-446.90295353 46.2941335 -418.55307153 45.48533529 -397 54 C-396.28875977 54.27295898 -395.57751953 54.54591797 -394.84472656 54.82714844 C-369.23898335 64.83781294 -350.89346347 81.98158519 -335 104 C-326.55412566 115.30419426 -317.6074185 124.67172893 -306.2265625 133.0390625 C-294.65644159 141.5693125 -283.95042169 151.05592407 -273.46484375 160.87890625 C-270.76328475 163.20370267 -267.99917908 165.08035127 -265 167 C-265.03480469 166.37738281 -265.06960938 165.75476563 -265.10546875 165.11328125 C-266.23811019 126.44166625 -247.97535461 90.62245689 -222 63 C-204.41043332 44.94451921 -183.67291083 31.71891619 -161 21 C-160.0716333 20.55575684 -160.0716333 20.55575684 -159.12451172 20.10253906 C-140.03475328 11.04966393 -119.71915214 4.94933695 -99 1 C-98.03400879 0.80390137 -97.06801758 0.60780273 -96.07275391 0.40576172 C-65.58986983 -5.61792017 -30.5387461 -6.11247841 0 0 Z M-227 223 C-226.93941406 224.08152344 -226.87882812 225.16304687 -226.81640625 226.27734375 C-226.40910142 233.71065692 -226.02332208 241.14252755 -225.74609375 248.58203125 C-225.70476318 249.68877197 -225.66343262 250.7955127 -225.62084961 251.93579102 C-225.54159311 254.1093404 -225.46547468 256.28300696 -225.39282227 258.45678711 C-225.20116548 263.71120244 -224.87895469 268.81416734 -224 274 C-218.09834902 276.26986576 -212.30358334 278.40578014 -206.24609375 275.828125 C-204.23785826 274.74779592 -202.23278972 273.66156474 -200.23046875 272.5703125 C-186.80769889 266.04558036 -170.92520548 266.46812839 -157 271 C-150.32635983 273.34728033 -150.32635983 273.34728033 -149 276 C-149.7425 275.84144531 -150.485 275.68289063 -151.25 275.51953125 C-170.64976417 272.83185559 -187.53449599 275.30289188 -205 284 C-205.29265823 286.36091616 -205.29265823 286.36091616 -205 289 C-203.51323378 290.87600801 -203.51323378 290.87600801 -201.5 292.3125 C-200.8503125 292.82425781 -200.200625 293.33601563 -199.53125 293.86328125 C-199.0259375 294.23839844 -198.520625 294.61351562 -198 295 C-198.375 297.4375 -198.375 297.4375 -199 300 C-201.2838375 301.14191875 -202.65122939 301.1523201 -205.19140625 301.2109375 C-206.04613525 301.23728271 -206.90086426 301.26362793 -207.78149414 301.29077148 C-208.69922607 301.31856689 -209.61695801 301.3463623 -210.5625 301.375 C-217.65293033 301.64890546 -224.57369489 302.18875302 -231.5625 303.4375 C-232.25738525 303.5597998 -232.95227051 303.68209961 -233.66821289 303.80810547 C-237.10969113 304.46717576 -239.89885667 305.42441912 -243 307 C-245.13631083 307.48185368 -247.28406849 307.91407851 -249.4375 308.3125 C-265.01263553 311.5600127 -281.83706162 318.71719512 -291.4921875 332.0625 C-291.90726563 332.701875 -292.32234375 333.34125 -292.75 334 C-295 337 -295 337 -297.75 337.5 C-300 337 -300 337 -301 336 C-300.71266127 331.76175367 -300.47242102 328.86925468 -298.4375 325.125 C-296.45336152 320.81165549 -296.37880092 316.68722939 -297 312 C-298.72226496 308.75150023 -298.72226496 308.75150023 -302 308 C-310.33304505 307.25901494 -317.27331004 308.29839162 -325.125 311.125 C-327.9319208 311.97928024 -330.08933374 312.17121566 -333 312 C-332.91796875 309.7265625 -332.91796875 309.7265625 -332 307 C-329.73451175 305.52968312 -327.75333405 304.4498627 -325.3125 303.375 C-324.69955078 303.08882813 -324.08660156 302.80265625 -323.45507812 302.5078125 C-321.64148001 301.66159493 -319.82077339 300.83066635 -318 300 C-313.25375377 297.90477095 -313.25375377 297.90477095 -310 294 C-309.74665705 290.6486347 -309.63384712 287.33926674 -309.609375 283.98046875 C-309.44378497 279.0403662 -308.52658681 276.47375405 -305 273 C-302.6177598 271.8088799 -301.45801824 271.98736091 -298.82421875 272.18359375 C-297.99599609 272.22291016 -297.16777344 272.26222656 -296.31445312 272.30273438 C-294.57321687 272.39206174 -292.83316138 272.50896314 -291.09570312 272.65429688 C-288.51932683 272.74809214 -286.48047581 272.7161065 -284 272 C-281.61653293 269.6494182 -280.33983362 267.04070025 -279 264 C-278.51273438 263.01257813 -278.02546875 262.02515625 -277.5234375 261.0078125 C-272.76902941 249.0732779 -270.75953722 236.8078072 -271 224 C-281.65969857 223.7572086 -291.93179484 224.4252846 -302.5 225.75 C-303.23745453 225.83992218 -303.97490906 225.92984436 -304.73471069 226.02249146 C-391.89799345 236.66126472 -479.72169757 274.36909722 -541.4140625 338.41015625 C-543.88675567 340.88893979 -546.54447442 343.1460701 -549.203125 345.421875 C-550.88370742 346.89786478 -552.51233851 348.3286766 -554 350 C-554 350.66 -554 351.32 -554 352 C-554.99 352.33 -555.98 352.66 -557 353 C-558.51397736 354.41686917 -558.51397736 354.41686917 -560 356.25 C-560.61617187 356.97960937 -561.23234375 357.70921875 -561.8671875 358.4609375 C-562.92292969 359.71777344 -562.92292969 359.71777344 -564 361 C-564.80695313 361.92039062 -565.61390625 362.84078125 -566.4453125 363.7890625 C-590.47945747 391.3070642 -607.90565104 423.24975256 -619 458 C-619.24089355 458.75152344 -619.48178711 459.50304687 -619.72998047 460.27734375 C-623.87192602 473.36140769 -626.52700308 486.57490419 -628.625 500.125 C-628.8098999 501.30509644 -628.8098999 501.30509644 -628.99853516 502.5090332 C-630.77397031 514.44717708 -631.20859624 526.38054786 -631.1875 538.4375 C-631.18609512 539.48605164 -631.18609512 539.48605164 -631.18466187 540.55578613 C-631.07092483 579.99732497 -624.66958537 626.66807774 -606 662.0625 C-604.46805399 664.97958053 -603.15450238 667.95735284 -601.86621094 670.98950195 C-592.84076123 691.93780475 -581.77681652 711.80391936 -568 730 C-566.97129725 731.37886379 -565.94265457 732.7577724 -564.9140625 734.13671875 C-557.95722603 743.40172784 -550.70796526 752.35003565 -543 761 C-542.52771973 761.53012695 -542.05543945 762.06025391 -541.56884766 762.60644531 C-530.72071045 774.70786406 -519.4825169 786.83039475 -506.6796875 796.87890625 C-504.23527383 798.81377013 -501.87726151 800.82431129 -499.52709961 802.87182617 C-481.08930045 818.85729327 -460.19516356 832.00498956 -439 844 C-438.35192383 844.36802734 -437.70384766 844.73605469 -437.03613281 845.11523438 C-411.14408148 859.67542881 -382.66848456 871.63012786 -353.8671875 878.96484375 C-351.08197093 879.67776253 -348.3846897 880.53226436 -345.66796875 881.47265625 C-340.66466924 883.17161762 -335.59237834 884.35774676 -330.4375 885.5 C-329.56287109 885.69980469 -328.68824219 885.89960937 -327.78710938 886.10546875 C-314.09066821 889.18398165 -300.35063821 891.50196871 -286.43652344 893.30761719 C-284.00092811 893.6248791 -281.56690272 893.95266249 -279.1328125 894.28125 C-261.77591022 896.58677789 -244.55529548 897.23760191 -227.0625 897.25 C-225.57074753 897.25151062 -225.57074753 897.25151062 -224.04885864 897.25305176 C-209.79986235 897.24332128 -195.9775494 896.72321668 -181.88769531 894.44433594 C-178.80323266 893.96972298 -175.71649004 893.59135013 -172.6171875 893.2265625 C-132.00751692 888.27833773 -92.94914642 876.4409852 -56 859 C-55.14083984 858.59990723 -54.28167969 858.19981445 -53.39648438 857.78759766 C-25.91625564 844.90958711 -0.2309803 828.20568702 22.97314453 808.6784668 C24.42646853 807.47494927 25.89857567 806.29397626 27.38232422 805.12817383 C35.11131705 799.00076756 42.08637044 792.25282896 49.04296875 785.27270508 C50.9883526 783.32416629 52.94669549 781.38935281 54.90625 779.45507812 C62.0588722 772.33739909 68.65200727 765.04199471 74.73657227 756.98803711 C76.73866453 754.3449989 78.80540356 751.78825164 80.9375 749.25 C101.54236219 723.47289689 118.60202707 691.66685038 128.26171875 660.125 C129 658 129 658 130.3671875 654.984375 C132.57022878 649.9017839 133.96455192 644.5800714 135.4375 639.25 C135.74534424 638.1374585 136.05318848 637.02491699 136.37036133 635.87866211 C147.3816333 595.49239213 153.44310781 550.88264287 147.31201172 509.22412109 C146.96689601 506.764024 146.68627739 504.3007991 146.41015625 501.83203125 C144.21518038 482.99560613 139.46567333 464.81404478 133 447 C132.70867188 446.18660156 132.41734375 445.37320313 132.1171875 444.53515625 C122.33411809 418.75544631 107.62631215 395.11665178 90 374 C89.16799072 373.00033203 88.33598145 372.00066406 87.47875977 370.97070312 C80.58421567 362.76775766 73.33876045 355.024194 65.73608398 347.4753418 C63.92778392 345.67784195 62.13054023 343.86977684 60.33398438 342.06054688 C54.24502179 335.96503568 48.09008855 330.19420077 41.3190918 324.85375977 C39.0830604 323.06639411 36.97392732 321.1952945 34.875 319.25 C28.65462857 313.67044836 21.95178187 308.69932071 15.26611328 303.69677734 C13.79768495 302.59727541 12.33230833 301.49368118 10.87060547 300.38525391 C-18.9676378 277.79950644 -53.12786718 259.37127018 -88.64453125 247.5078125 C-91.26941295 246.62750651 -93.69769735 245.68531909 -96.23046875 244.54296875 C-101.7623158 242.11152716 -107.67582456 240.73656263 -113.5 239.1875 C-114.47126831 238.92812653 -114.47126831 238.92812653 -115.4621582 238.66351318 C-138.19484783 232.6280465 -161.5010353 228.08715042 -184.9375 226 C-185.80721436 225.92023926 -186.67692871 225.84047852 -187.57299805 225.75830078 C-189.41862184 225.59002477 -191.26441044 225.42354755 -193.11035156 225.25878906 C-196.13399478 224.98799979 -199.15681778 224.70896923 -202.1796875 224.4296875 C-204.22391663 224.24433119 -206.2681866 224.05942457 -208.3125 223.875 C-209.2605249 223.78734375 -210.2085498 223.6996875 -211.18530273 223.609375 C-216.48223542 223.141263 -221.68245696 222.91272497 -227 223 Z " fill="#1D3252" transform="translate(878,181)"/>
<path d="M0 0 C11.35620389 0.3862868 22.57565356 0.90172051 33.8359375 2.47265625 C37.82326133 3.01019649 41.81691494 3.3317472 45.8269043 3.6496582 C58.07031022 4.63566847 69.97513162 6.51858462 82 9 C83.08007324 9.22204102 84.16014648 9.44408203 85.27294922 9.67285156 C116.02384083 16.07396773 145.63124966 25.40819106 174 39 C174.81774902 39.38768555 175.63549805 39.77537109 176.47802734 40.17480469 C211.21648148 56.72725444 243.93399355 79.33404692 272.19921875 105.4453125 C273.67520572 106.79161024 275.15609092 108.13344761 276.67456055 109.43164062 C282.65488811 114.54454501 288.23078826 120.04465785 293.7902832 125.60498047 C295.42575882 127.23827448 297.06907708 128.8633847 298.71289062 130.48828125 C305.27388603 137.01466247 311.24988932 143.74008372 317 151 C318.49617966 152.79485818 319.99577549 154.58687862 321.5 156.375 C336.84650719 175.1851286 349.77276477 197.1671112 358 220 C358.66129796 221.58558314 359.32775445 223.16902726 360 224.75 C362.63603955 231.30821131 364.49444384 238.10778931 366.40185547 244.90527344 C366.93129655 246.75939771 367.49625896 248.60329818 368.06640625 250.4453125 C384.84597002 307.16681827 376.18256768 372.52659859 358.65527344 427.89746094 C358.05872149 429.81158365 357.49990582 431.73736422 356.9453125 433.6640625 C355.03341627 440.28459574 352.59651348 446.37909477 349.61328125 452.58984375 C348.23034032 455.51310629 346.94559892 458.45892597 345.69360352 461.43994141 C338.175545 479.21152859 328.94426213 496.11687295 318 512 C317.59072266 512.60070312 317.18144531 513.20140625 316.75976562 513.8203125 C311.94230237 520.86420403 306.80408913 527.61575581 301.4375 534.25 C300.67880615 535.18791382 300.67880615 535.18791382 299.90478516 536.14477539 C292.31627931 545.40149623 284.12975848 554.05688218 275.67138672 562.51391602 C274.1282647 564.05923066 272.59335694 565.61240446 271.05859375 567.16601562 C264.69679782 573.56364013 258.07047771 579.38072034 251 585 C249.75186833 586.04788096 248.50781843 587.10066012 247.26953125 588.16015625 C211.67604594 618.23807997 169.22950894 638.82362992 125.5625 654.1875 C124.43618164 654.58662598 123.30986328 654.98575195 122.14941406 655.39697266 C121.11139648 655.75452637 120.07337891 656.11208008 119.00390625 656.48046875 C117.62440796 656.95842896 117.62440796 656.95842896 116.21704102 657.44604492 C114 658 114 658 112 657 C112.41660889 656.56357178 112.83321777 656.12714355 113.26245117 655.67749023 C142.04945072 625.46160081 167.92015744 592.72463157 186.07666016 554.91162109 C186.92362392 553.15812393 187.79464219 551.41629859 188.66796875 549.67578125 C195.08928979 536.54334083 199.96482108 522.7079644 205 509 C205.43803955 507.80785889 205.8760791 506.61571777 206.32739258 505.38745117 C208.95754071 498.13531033 211.36456499 490.868213 213.4375 483.4375 C213.73043945 482.38884766 214.02337891 481.34019531 214.32519531 480.25976562 C217.84848052 467.31444802 220.51175122 454.17863345 223 441 C223.12380035 440.34905365 223.24760071 439.6981073 223.37515259 439.0274353 C233.73766787 384.12323447 232.86570373 326.58076953 221 272 C220.75878418 270.87368164 220.51756836 269.74736328 220.26904297 268.58691406 C213.58835488 237.86952348 203.38792584 208.41277874 190 180 C189.62681641 179.19771973 189.25363281 178.39543945 188.86914062 177.56884766 C179.89910129 158.40523091 169.03767097 139.77500093 155.34033203 123.58447266 C153.93851742 121.9273184 152.56097872 120.25171227 151.18359375 118.57421875 C126.3384381 88.63069531 95.79582315 67.91081185 60 53 C60 52.67 60 52.34 60 52 C72.66970387 51.81548975 72.66970387 51.81548975 78 53 C76.45476739 49.90953478 73.98213945 49.63730702 70.8125 48.4375 C69.68457031 48.00308594 68.55664062 47.56867188 67.39453125 47.12109375 C54.30425161 42.79783684 40.80001699 44.72880789 28 49 C26.22639138 49.91390111 24.47222646 50.86760792 22.75 51.875 C17.07542332 55.03503591 12.02404454 53.6687612 6 52 C5.01 51.67 4.02 51.34 3 51 C1.94244008 44.76039645 1.71118222 38.56862968 1.5 32.25 C1.41895155 30.0273077 1.33690866 27.80465144 1.25390625 25.58203125 C1.19227295 23.9280835 1.19227295 23.9280835 1.12939453 22.24072266 C0.83323172 14.8232413 0.4151918 7.41161538 0 0 Z " fill="#EC8232" transform="translate(651,404)"/>
<path d="M0 0 C-7.09276425 23.58161311 -24.49267839 45.87681026 -40.94921875 63.765625 C-42.86385691 65.85166886 -44.71822958 67.97682046 -46.5625 70.125 C-53.38527669 77.91576789 -60.81920506 84.65119775 -69 91 C-69.52867676 91.41040527 -70.05735352 91.82081055 -70.60205078 92.24365234 C-78.47160405 98.28480808 -86.53639976 103.07042414 -95.50390625 107.30859375 C-98.87611732 108.85369936 -98.87611732 108.85369936 -101.359375 110.515625 C-124.96365381 123.78430244 -156.16709669 125.8147837 -182.6015625 128.140625 C-214.56214227 130.96860756 -245.51569886 137.51569886 -269 161 C-272.0173831 160.60291365 -274.4505483 159.36372023 -277.109375 157.93359375 C-277.86347656 157.53076172 -278.61757813 157.12792969 -279.39453125 156.71289062 C-280.17183594 156.29201172 -280.94914063 155.87113281 -281.75 155.4375 C-282.93916016 154.80038086 -282.93916016 154.80038086 -284.15234375 154.15039062 C-286.10371067 153.10417583 -288.05279814 152.05394047 -290 151 C-290.79479937 114.92493975 -280.09888196 82.22132846 -256 55 C-255.56010742 54.49984375 -255.12021484 53.9996875 -254.66699219 53.484375 C-232.86139888 28.79072483 -203.13450716 8.73327883 -171.28125 -0.34179688 C-169.06030215 -0.98260118 -166.87562693 -1.69310492 -164.6875 -2.4375 C-163.1252719 -2.95914834 -161.56274986 -3.47991685 -160 -4 C-159.08089844 -4.309375 -158.16179687 -4.61875 -157.21484375 -4.9375 C-148.43321659 -7.77959425 -139.57158344 -9.83269024 -130.50830078 -11.52978516 C-128.9004518 -11.83119815 -127.29440503 -12.14249169 -125.69091797 -12.46630859 C-86.94213833 -20.11355015 -35.6313427 -18.90986219 0 0 Z " fill="#82B275" transform="translate(914,205)"/>
<path d="M0 0 C0.62181152 0.21430664 1.24362305 0.42861328 1.88427734 0.64941406 C25.83048535 8.93083611 42.50489354 24.94329499 57.5078125 44.74609375 C60.56665331 48.76905627 63.77351228 52.66683405 66.9921875 56.5625 C68.31772649 58.17171466 69.60570102 59.81271277 70.8515625 61.484375 C73.43140327 64.50513401 76.35719567 66.85455936 79.5 69.25 C80.11875 69.72961182 80.7375 70.20922363 81.375 70.70336914 C85.21195932 73.66708605 89.09882524 76.55881056 93 79.4375 C101.09452067 85.47609853 108.77843582 92.04762015 116.16796875 98.9296875 C116.67175049 99.39850342 117.17553223 99.86731934 117.69458008 100.3503418 C118.68362305 101.27759991 119.66665428 102.21131556 120.64331055 103.15161133 C123.95397286 106.27290085 127.36243174 108.34746172 131.3125 110.5625 C134.0390625 112.41015625 134.0390625 112.41015625 136 115 C137.05469251 120.97612707 135.98069443 127.07787108 135 133 C132.21440136 130.23019871 129.4536744 127.44084964 126.72265625 124.6171875 C118.63708475 116.31592702 110.33068712 108.8679407 101 102 C100.15566406 101.33742188 99.31132813 100.67484375 98.44140625 99.9921875 C94.25583711 96.8729592 90.6888329 94.88728883 85.359375 95.30078125 C80.14048747 96.84743832 76.1685456 100.63452022 72 104 C58.90254008 114.13281989 46.20716541 123.39506797 29 123.3125 C28.35933594 123.32861328 27.71867188 123.34472656 27.05859375 123.36132812 C14.25792602 123.37347297 1.88396978 119.67286925 -10.01220703 115.29370117 C-12.02304365 114.55402349 -14.0399818 113.83338972 -16.05859375 113.11523438 C-21.91556158 111.01110468 -27.61559332 108.83074747 -33.12109375 105.91821289 C-36.93297005 104.05536638 -40.98573723 102.79079313 -45 101.4375 C-46.70862569 100.85371956 -48.41696294 100.26909418 -50.125 99.68359375 C-50.9509668 99.40112793 -51.77693359 99.11866211 -52.62792969 98.82763672 C-54.79100055 98.07292179 -56.9360702 97.28477717 -59.078125 96.47265625 C-69.18487286 92.64207716 -79.49079984 89.13187498 -90.02734375 86.70043945 C-92.87298474 86.02992828 -95.69552748 85.29587953 -98.5234375 84.5546875 C-131.32442773 76.37830343 -166.6165593 77.3081842 -200 81 C-196.82899238 76.60509471 -193.26872779 73.70562766 -188.9375 70.5625 C-188.23343018 70.04445801 -187.52936035 69.52641602 -186.80395508 68.99267578 C-185.30006234 67.88648902 -183.79439836 66.78270689 -182.28710938 65.68115234 C-180.06870561 64.05050243 -177.86823139 62.39846828 -175.671875 60.73828125 C-156.34935944 46.19789108 -136.21404986 32.62774727 -115 21 C-114.18966309 20.5457666 -113.37932617 20.0915332 -112.54443359 19.62353516 C-79.91858696 1.37645957 -37.06523402 -13.64000612 0 0 Z " fill="#82B175" transform="translate(475,246)"/>
<path d="M0 0 C1.19625 0.04125 2.3925 0.0825 3.625 0.125 C11.22508532 2.09539249 17.78771492 7.41910477 22 14 C28.79524891 26.23568184 27.24210049 42.91739216 23.625 55.96289062 C12.00138545 93.84860931 -13.26093572 130.08240471 -41.58642578 157.51513672 C-43.10415662 158.9643085 -43.10415662 158.9643085 -44 161 C-44.66 161 -45.32 161 -46 161 C-46.24234375 161.5775 -46.4846875 162.155 -46.734375 162.75 C-49.34594248 167.39278662 -54.01931018 170.55041258 -58 174 C-59.04807759 174.94267508 -60.0949191 175.88672595 -61.140625 176.83203125 C-79.99980922 193.68871706 -103.18677188 210.0907285 -129.44140625 209.47265625 C-136.75751051 208.50092341 -141.82219706 204.80466139 -146.4375 199.1875 C-153.64520588 188.3248951 -153.22481336 176.17034981 -150.75 163.6875 C-149.56241263 158.72528048 -148.04437649 154.0814805 -146.01953125 149.40234375 C-144.9680268 146.92466084 -144.11007328 144.42490889 -143.25 141.875 C-140.50972904 134.26671827 -136.73634317 127.15613752 -133 120 C-132.68595215 119.39800781 -132.3719043 118.79601562 -132.04833984 118.17578125 C-126.40114409 107.40769508 -120.264238 97.11994228 -113.25 87.1875 C-112.32985107 85.88111572 -112.32985107 85.88111572 -111.39111328 84.54833984 C-96.84590161 64.00251535 -80.67651975 43.90707152 -61 28 C-60.12085938 27.27039063 -59.24171875 26.54078125 -58.3359375 25.7890625 C-46.08612184 15.95819778 -32.21572786 6.35543139 -17 2 C-16.01 1.5875 -15.02 1.175 -14 0.75 C-9.33407105 -0.41648224 -4.78065209 -0.20298523 0 0 Z " fill="#FDA462" transform="translate(451,519)"/>
<path d="M0 0 C1.54681253 0.86333723 3.0846499 1.74428254 4.59350586 2.67236328 C7.07223197 4.11691904 7.07223197 4.11691904 10.22094727 5.19873047 C14.17040274 6.9552171 17.39779135 8.47037013 20 12 C22.33070874 19.17724979 21.49514688 27.18926519 21.25 34.625 C21.22440479 36.70566341 21.20481585 38.78640988 21.19140625 40.8671875 C21.17179718 43.80098063 21.14373659 46.73156054 21.06768799 49.66445923 C20.95154893 54.27872891 21.12379937 58.44826225 22 63 C23.60445614 80.99439449 24.65644205 96.70984762 12.91796875 111.515625 C12.4079834 112.11697266 11.89799805 112.71832031 11.37255859 113.33789062 C9.65446171 115.41843199 8.3027551 117.64132762 7 120 C-2.8125823 117.10787048 -11.56385347 110.91734561 -19 104 C-17.4748412 99.96814455 -15.6036428 96.20268018 -13.625 92.375 C-3.2731523 71.8131474 -2.61365699 52.32995985 -3 29.6875 C-3.07979143 24.9205954 -3.13959173 20.15403762 -3.1875 15.38671875 C-3.21239502 14.30138351 -3.23729004 13.21604828 -3.26293945 12.0978241 C-3.27780396 10.58893364 -3.27780396 10.58893364 -3.29296875 9.04956055 C-3.3086792 8.16817917 -3.32438965 7.28679779 -3.34057617 6.37870789 C-2.9307767 3.51651931 -1.88732557 2.1455345 0 0 Z " fill="#9C623A" transform="translate(620,360)"/>
<path d="M0 0 C1.81274414 0.00676758 1.81274414 0.00676758 3.66210938 0.01367188 C6.62895789 0.02539855 9.5957027 0.04181104 12.5625 0.0625 C12.8925 1.0525 13.2225 2.0425 13.5625 3.0625 C7.94817322 4.36296141 2.34786938 5.47099225 -3.33813477 6.40551758 C-23.23652604 9.68412322 -42.34693763 14.57298125 -61.4375 21.0625 C-62.16275879 21.30581055 -62.88801758 21.54912109 -63.63525391 21.79980469 C-92.96570843 31.75208622 -122.06362831 49.49177432 -141.4375 74.0625 C-142.24445312 75.08214844 -143.05140625 76.10179687 -143.8828125 77.15234375 C-154.39569864 90.78954909 -163.39121023 105.78683483 -169.29589844 121.99755859 C-169.93512158 123.71552356 -170.67755044 125.39442131 -171.4375 127.0625 C-172.9225 127.5575 -172.9225 127.5575 -174.4375 128.0625 C-174.63944512 122.4017259 -174.10638511 117.5640659 -172.4375 112.125 C-172.21529785 111.39482666 -171.9930957 110.66465332 -171.76416016 109.91235352 C-165.63329272 90.63831 -155.01499236 73.94810211 -140.88964844 59.54980469 C-139.36775885 57.99107043 -137.87541173 56.40708203 -136.3828125 54.8203125 C-111.25548972 28.4750244 -75.7917957 12.17515275 -40.4375 5.0625 C-38.68744898 4.69946461 -36.93745147 4.33617121 -35.1875 3.97265625 C-30.27746919 2.96533426 -25.36646908 1.97313397 -20.4375 1.0625 C-19.36628906 0.86140625 -18.29507813 0.6603125 -17.19140625 0.453125 C-11.46327704 -0.14293423 -5.75422818 -0.04081013 0 0 Z " fill="#1E3551" transform="translate(810.4375,224.9375)"/>
<path d="M0 0 C2.80440344 1.32611325 5.60002845 2.61078164 8.4609375 3.8125 C24.75758816 10.76276911 47.09468266 21.1660391 58.1875 35.4375 C58.1875 36.7575 58.1875 38.0775 58.1875 39.4375 C52.29957415 38.98602965 48.24083381 36.42493013 43.3125 33.4375 C41.61889279 32.43551608 39.92487545 31.43422509 38.23046875 30.43359375 C37.38532715 29.93069824 36.54018555 29.42780273 35.66943359 28.90966797 C23.08731655 21.32614859 23.08731655 21.32614859 9.68798828 15.39819336 C7.1201622 14.41162866 4.67702 13.27157431 2.1953125 12.0859375 C-3.93005047 9.28331672 -10.17988763 7.24489281 -16.625 5.3125 C-17.76630371 4.96630615 -18.90760742 4.6201123 -20.08349609 4.26342773 C-49.44740945 -4.51730665 -77.10475583 -4.34069704 -106.58984375 3.66796875 C-109.8125 4.4375 -109.8125 4.4375 -113.8125 4.4375 C-113.8125 3.7775 -113.8125 3.1175 -113.8125 2.4375 C-104.63459321 -2.52805444 -95.96342958 -5.99125613 -85.8125 -8.5625 C-84.72839844 -8.90667969 -83.64429688 -9.25085938 -82.52734375 -9.60546875 C-56.51352411 -16.30724142 -23.99736398 -11.45071069 0 0 Z " fill="#1E3450" transform="translate(487.8125,285.5625)"/>
<path d="M0 0 C4.29 0 8.58 0 13 0 C13.45375 1.134375 13.9075 2.26875 14.375 3.4375 C18.78060759 12.23314766 27.83210067 17.96904751 36 23 C33.42430924 24.71712717 30.80938964 26.25403443 28.11181641 27.76757812 C22.50992156 30.91157366 17.11960247 34.0993505 12 38 C11.96261719 37.26394531 11.92523437 36.52789062 11.88671875 35.76953125 C11.57724273 28.30488833 11.57724273 28.30488833 8 22 C4.76638772 20.07359269 1.69978515 18.71149714 -2 18 C-1.84660156 17.48953125 -1.69320312 16.9790625 -1.53515625 16.453125 C-0.83094597 13.2250662 -0.65111796 10.04581999 -0.4375 6.75 C-0.35371094 5.48671875 -0.26992188 4.2234375 -0.18359375 2.921875 C-0.12300781 1.95765625 -0.06242188 0.9934375 0 0 Z " fill="#9E5923" transform="translate(577,462)"/>
<path d="M0 0 C8.22170969 1.8270466 15.21488731 4.26490014 22.9375 7.4375 C24.18016918 7.93336734 25.42300671 8.42881301 26.66601562 8.92382812 C27.83712891 9.40142578 29.00824219 9.87902344 30.21484375 10.37109375 C31.80993774 11.0196936 31.80993774 11.0196936 33.43725586 11.68139648 C36 13 36 13 38 16 C36.92621094 16.31453125 35.85242188 16.6290625 34.74609375 16.953125 C33.30975966 17.38496401 31.87356932 17.81728132 30.4375 18.25 C29.73302734 18.45496094 29.02855469 18.65992188 28.30273438 18.87109375 C24.66794314 19.97660629 21.57502272 21.16790213 18.36328125 23.21484375 C14.48563141 25.27301561 12.96244372 25.24679841 8.75 24.3125 C7.73421875 24.10238281 6.7184375 23.89226562 5.671875 23.67578125 C3 23 3 23 0 22 C0 14.74 0 7.48 0 0 Z " fill="#F99447" transform="translate(654,433)"/>
<path d="M0 0 C7.425 0.99 7.425 0.99 15 2 C15.33 4.97 15.66 7.94 16 11 C14.80117188 11.18175781 14.80117188 11.18175781 13.578125 11.3671875 C6.04129734 12.51717294 -1.48301429 13.72685287 -9 15 C-6.95638918 9.27169694 -3.53825277 4.91423996 0 0 Z " fill="#985925" transform="translate(649,463)"/>
<path d="M0 0 C1.69140625 1.1015625 1.69140625 1.1015625 2.69140625 3.1015625 C2.81223159 4.76501832 2.86678565 6.43376841 2.87890625 8.1015625 C2.89308594 8.9884375 2.90726563 9.8753125 2.921875 10.7890625 C2.69140625 13.1015625 2.69140625 13.1015625 0.69140625 15.1015625 C0.38203125 14.3590625 0.07265625 13.6165625 -0.24609375 12.8515625 C-3.62924972 8.34068788 -8.49051824 6.53217604 -14.01196289 5.68847656 C-16.80286671 5.49065529 -19.57365733 5.39439034 -22.37109375 5.3515625 C-23.33208984 5.32191406 -24.29308594 5.29226563 -25.28320312 5.26171875 C-27.62508006 5.19181198 -29.96600789 5.13873114 -32.30859375 5.1015625 C-22.9655329 0.32824629 -10.31432487 -4.01403506 0 0 Z " fill="#E47E36" transform="translate(578.30859375,489.8984375)"/>
<path d="M0 0 C4.00213481 0.54574566 5.34416054 2.21303957 7.75 5.375 C8.4267545 9.05955227 8.24791771 10.61816508 6.1875 13.75 C2.8505787 15.9746142 0.68094707 15.87530235 -3.25 15.375 C-5.25 14.25 -5.25 14.25 -6.25 12.375 C-5.95176826 7.80211324 -5.24546004 0.87424334 0 0 Z " fill="#4C3F3D" transform="translate(687.25,749.625)"/>
<path d="M0 0 C2.9375 0.5625 2.9375 0.5625 5.375 2.1875 C6.9375 4.5625 6.9375 4.5625 7 7.5625 C5.66524495 11.33122015 4.38568248 12.57021679 0.9375 14.5625 C-2.1875 15.0625 -2.1875 15.0625 -5.0625 14.5625 C-7.34145936 12.51143657 -7.94958855 11.1129433 -8.5625 8.125 C-7.62525536 3.32162124 -4.72148344 0.86721124 0 0 Z " fill="#52423E" transform="translate(350.0625,540.4375)"/>
<path d="M0 0 C2.4375 1.625 2.4375 1.625 4 4 C4.61793165 7.70758991 4.50197249 9.2935202 2.3125 12.375 C0 14 0 14 -2.5 14.5 C-5.90040939 13.81991812 -6.9812048 12.81189331 -9 10 C-10.5577342 4.08061002 -10.5577342 4.08061002 -9 1.0625 C-5.85568254 -0.60791865 -3.49168717 -0.42880369 0 0 Z " fill="#4D413E" transform="translate(802,973)"/>
<path d="M0 0 C3.94277862 1.18283358 5.62013582 2.69591106 8.125 5.9375 C8.68891056 8.89803044 8.54023807 10.20472693 7.0625 12.8125 C5.125 13.9375 5.125 13.9375 1.75 14 C-3.08923832 12.58160256 -4.25050895 11.20229795 -6.875 6.9375 C-6.875 4.1875 -6.875 4.1875 -5.875 1.9375 C-2.875 -0.0625 -2.875 -0.0625 0 0 Z " fill="#57443E" transform="translate(663.875,996.0625)"/>
<path d="M0 0 C2 1.125 2 1.125 3 3 C2.92922353 6.39727068 2.62034372 8.28421879 0.375 10.875 C-2.9306081 12.44081436 -5.38967817 12.39385329 -9 12 C-11 10.875 -11 10.875 -12 9 C-11.92922353 5.60272932 -11.62034372 3.71578121 -9.375 1.125 C-6.0693919 -0.44081436 -3.61032183 -0.39385329 0 0 Z " fill="#50423E" transform="translate(377,612)"/>
<path d="M0 0 C3.96035621 0.08800792 5.73403998 0.79185738 8.875 3.25 C11 6 11 6 11.5 8.625 C10.90480825 11.45216081 10.41652971 12.4167564 8 14 C5.625 14.5625 5.625 14.5625 3 14 C-0.38194802 10.84351518 -1.81952025 9.34070668 -2.4375 4.75 C-2 2 -2 2 0 0 Z " fill="#53433F" transform="translate(828,836)"/>
<path d="M0 0 C0.99 0.66 1.98 1.32 3 2 C3.65158371 8.84162896 3.65158371 8.84162896 1.875 12 C-0.93163039 13.49686954 -2.87757843 13.45535315 -6 13 C-8.59814888 10.74827097 -8.95716454 9.34982295 -9.375 5.9375 C-9 3 -9 3 -7.875 1.125 C-5.14747535 -0.51151479 -3.12026907 -0.32502803 0 0 Z " fill="#4D403C" transform="translate(790,620)"/>
<path d="M0 0 C1.875 1.0625 1.875 1.0625 3 3 C3.63316583 8.90954774 3.63316583 8.90954774 1.875 11.9375 C-0.88980433 13.50422245 -2.88188517 13.38976435 -6 13 C-7.875 11.9375 -7.875 11.9375 -9 10 C-9.63316583 4.09045226 -9.63316583 4.09045226 -7.875 1.0625 C-5.11019567 -0.50422245 -3.11811483 -0.38976435 0 0 Z " fill="#50403B" transform="translate(913,573)"/>
<path d="M0 0 C3.4375 0.375 3.4375 0.375 5.4375 2.375 C5.86994601 6.26701406 6.01596465 8.50730302 3.8125 11.8125 C0.77294906 13.81220456 -0.99174991 13.91837501 -4.5625 13.375 C-6.88829101 9.88631349 -6.98115457 8.47781481 -6.5625 4.375 C-4.91004693 0.68128136 -4.08263587 0.42975114 0 0 Z " fill="#4E3F3C" transform="translate(409.5625,579.625)"/>
<path d="M0 0 C1.875 1.0625 1.875 1.0625 3 3 C3.63316583 8.90954774 3.63316583 8.90954774 1.875 11.9375 C-0.92162472 13.52225401 -2.8493196 13.45947423 -6 13 C-8.59814888 10.74827097 -8.95716454 9.34982295 -9.375 5.9375 C-9 3 -9 3 -7.875 1.125 C-5.11909116 -0.52854531 -3.14924548 -0.39365568 0 0 Z " fill="#4E3E3B" transform="translate(842,525)"/>
<path d="M0 0 C1.9375 1.5625 1.9375 1.5625 3 4 C2.67272727 10.32727273 2.67272727 10.32727273 0 13 C-3.07108055 13.3267107 -5.15050101 13.48138276 -7.875 11.9375 C-9.64273274 8.8930714 -9.36823916 6.4368988 -9 3 C-6.85106865 -0.70093733 -4.00059138 -0.58341958 0 0 Z " fill="#55453D" transform="translate(655,917)"/>
<path d="M0 0 C3.50367037 0.35036704 4.86023555 0.61220392 7.125 3.3125 C7.56229494 6.81085955 7.81521039 9.18636726 5.9375 12.25 C3.38885815 13.74403143 2.03141128 13.87960464 -0.875 13.3125 C-3.78811402 10.63558441 -4.78541772 9.0739494 -5.25 5.125 C-4.73001712 1.22512843 -3.91279314 0.4253036 0 0 Z " fill="#4C3F3D" transform="translate(369.875,937.6875)"/>
<path d="M0 0 C3.125 0.375 3.125 0.375 5.5625 2 C7.125 4.375 7.125 4.375 7 7.5 C6.125 10.375 6.125 10.375 4.125 12.375 C0.6875 12.75 0.6875 12.75 -2.875 12.375 C-4.875 10.75 -4.875 10.75 -5.875 8.375 C-5.58844949 3.59915821 -5.19565949 0.67769472 0 0 Z " fill="#52403A" transform="translate(984.875,777.625)"/>
<path d="M0 0 C1.8125 1.125 1.8125 1.125 3 3 C3.3125 6.0625 3.3125 6.0625 3 9 C1 11 1 11 -2.5 11.25 C-6 11 -6 11 -8 9 C-8.333728 5.86295684 -8.52849028 3.83445834 -6.8125 1.125 C-4.34492892 -0.40659584 -2.85480169 -0.42822025 0 0 Z " fill="#4E403D" transform="translate(723,832)"/>
<path d="M0 0 C1.8125 1.1875 1.8125 1.1875 3 3 C3.42822025 5.85480169 3.40659584 7.34492892 1.875 9.8125 C-0.83445834 11.52849028 -2.86295684 11.333728 -6 11 C-8 9 -8 9 -8.3125 6.0625 C-8 3 -8 3 -6.8125 1.125 C-4.34492892 -0.40659584 -2.85480169 -0.42822025 0 0 Z " fill="#4C403D" transform="translate(903,954)"/>
<path d="M0 0 C2.5625 0.3125 2.5625 0.3125 4.375 1.5 C5.98775784 3.96157776 5.9959014 5.42315736 5.5625 8.3125 C4.375 10.125 4.375 10.125 2.5625 11.3125 C0.0625 11.75 0.0625 11.75 -2.4375 11.3125 C-4.3125 9.625 -4.3125 9.625 -5.4375 7.3125 C-5.14609088 3.23277231 -4.43505664 0.56859701 0 0 Z " fill="#554139" transform="translate(568.4375,1026.6875)"/>
<path d="M0 0 C2.4375 0.75 2.4375 0.75 4.4375 2.75 C4.6875 5.75 4.6875 5.75 4.4375 8.75 C2.4375 10.75 2.4375 10.75 -0.5625 11 C-3.5625 10.75 -3.5625 10.75 -5.5625 8.75 C-5.875 5.25 -5.875 5.25 -5.5625 1.75 C-2.5625 -0.25 -2.5625 -0.25 0 0 Z " fill="#4B3F3B" transform="translate(274.5625,672.25)"/>
<path d="M0 0 C3 0.25 3 0.25 5 2.25 C5.125 5.375 5.125 5.375 5 8.25 C2.23749964 9.63125018 0.05268901 9.44079306 -3 9.25 C-5 7.25 -5 7.25 -5.25 4.75 C-4.86630891 0.91308908 -3.76694968 0.31391247 0 0 Z " fill="#56433C" transform="translate(729,811.75)"/>
<path d="M0 0 C1.9375 0.75 1.9375 0.75 3.9375 2.75 C4.1875 5.25 4.1875 5.25 3.9375 7.75 C1.9375 9.75 1.9375 9.75 -0.5625 10 C-3.0625 9.75 -3.0625 9.75 -5.0625 7.75 C-5.375 4.75 -5.375 4.75 -5.0625 1.75 C-2.0625 -0.25 -2.0625 -0.25 0 0 Z " fill="#56463F" transform="translate(413.0625,907.25)"/>
<path d="M0 0 C0.79664063 0.25265625 1.59328125 0.5053125 2.4140625 0.765625 C4.375 1.75 4.375 1.75 5.375 4.75 C-3.535 4.42 -12.445 4.09 -21.625 3.75 C-21.295 2.76 -20.965 1.77 -20.625 0.75 C-19.26955078 0.65912109 -19.26955078 0.65912109 -17.88671875 0.56640625 C-16.11748047 0.44072266 -16.11748047 0.44072266 -14.3125 0.3125 C-13.14074219 0.23128906 -11.96898437 0.15007812 -10.76171875 0.06640625 C-2.35303986 -0.78179175 -2.35303986 -0.78179175 0 0 Z " fill="#423F4A" transform="translate(723.625,452.25)"/>
<path d="M0 0 C-4.29 0.66 -8.58 1.32 -13 2 C-13 2.66 -13 3.32 -13 4 C-18.28 4 -23.56 4 -29 4 C-19.98730231 -0.50634885 -9.53311086 -4.76655543 0 0 Z " fill="#D77E3B" transform="translate(575,491)"/>
<path d="M0 0 C0 0.33 0 0.66 0 1 C1.98 1.33 3.96 1.66 6 2 C6 2.33 6 2.66 6 3 C2.18872685 3.06686444 -1.31708217 3.10748833 -5.08984375 2.51367188 C-9.41320773 1.94571747 -13.64187124 1.77511965 -17.99609375 1.68359375 C-19.24641136 1.6524221 -19.24641136 1.6524221 -20.52198792 1.62062073 C-23.16041561 1.55572144 -25.79893491 1.49652022 -28.4375 1.4375 C-30.23633724 1.39425794 -32.03516554 1.35064192 -33.83398438 1.30664062 C-38.2225646 1.20010201 -42.6112361 1.09867025 -47 1 C-47 0.67 -47 0.34 -47 0 C-41.91396968 -0.16912527 -36.82776175 -0.32950463 -31.74121094 -0.48217773 C-30.0149006 -0.53517849 -28.28865882 -0.59046835 -26.5625 -0.64819336 C-17.61856588 -0.94580691 -8.8927958 -1.23257437 0 0 Z " fill="#6A778C" transform="translate(348,335)"/>
<path d="M0 0 C8.58 0 17.16 0 26 0 C26.33 0.99 26.66 1.98 27 3 C20.608 4.25333333 20.608 4.25333333 17.75 3.0625 C14.25540889 1.71231707 10.88667462 1.54491424 7.1875 1.375 C6.49462891 1.33632812 5.80175781 1.29765625 5.08789062 1.2578125 C3.39232985 1.16426432 1.69620288 1.08107636 0 1 C0 0.67 0 0.34 0 0 Z " fill="#274254" transform="translate(797,225)"/>
<path d="M0 0 C0.66 0.33 1.32 0.66 2 1 C1.01 1.66 0.02 2.32 -1 3 C-1 3.66 -1 4.32 -1 5 C-0.34 5.33 0.32 5.66 1 6 C-0.41538717 6.33872513 -1.83237963 6.67074624 -3.25 7 C-4.03890625 7.185625 -4.8278125 7.37125 -5.640625 7.5625 C-8 8 -8 8 -12 8 C-12 7.34 -12 6.68 -12 6 C-10.04669132 4.96958487 -8.08718472 3.9509107 -6.125 2.9375 C-5.03445313 2.36902344 -3.94390625 1.80054688 -2.8203125 1.21484375 C-1.42425781 0.61349609 -1.42425781 0.61349609 0 0 Z " fill="#274052" transform="translate(386,282)"/>
<path d="M0 0 C0.763125 0.20625 1.52625 0.4125 2.3125 0.625 C2.6425 1.945 2.9725 3.265 3.3125 4.625 C2.6525 3.965 1.9925 3.305 1.3125 2.625 C-0.0075 2.625 -1.3275 2.625 -2.6875 2.625 C-2.6875 4.935 -2.6875 7.245 -2.6875 9.625 C-1.0375 9.625 0.6125 9.625 2.3125 9.625 C2.3125 9.955 2.3125 10.285 2.3125 10.625 C-0.5625 10.75 -0.5625 10.75 -3.6875 10.625 C-5.6875 8.625 -5.6875 8.625 -6 5.125 C-5.896875 3.97 -5.79375 2.815 -5.6875 1.625 C-2.6875 -0.375 -2.6875 -0.375 0 0 Z " fill="#5F483E" transform="translate(274.6875,672.375)"/>
<path d="M0 0 C2.125 0.375 2.125 0.375 4 1 C3.01 2.485 3.01 2.485 2 4 C2.33 4.66 2.66 5.32 3 6 C1.02 6.33 -0.96 6.66 -3 7 C-2.25 2.25 -2.25 2.25 0 0 Z " fill="#2B354A" transform="translate(547,486)"/>
<path d="M0 0 C0 3.19598122 -0.3723873 4.32532435 -2 7 C-3.7265625 8.703125 -3.7265625 8.703125 -5.625 10.25 C-6.25664063 10.77078125 -6.88828125 11.2915625 -7.5390625 11.828125 C-8.02117188 12.21484375 -8.50328125 12.6015625 -9 13 C-9.66 12.67 -10.32 12.34 -11 12 C-10.54109375 11.55269531 -10.0821875 11.10539063 -9.609375 10.64453125 C-6.16447701 7.25029352 -2.92744915 3.86423288 0 0 Z " fill="#DEE0E6" transform="translate(953,955)"/>
<path d="M0 0 C1.32 0.66 2.64 1.32 4 2 C-2.00054754 3.66681876 -7.7945858 4.51679152 -14 5 C-13.34 4.67 -12.68 4.34 -12 4 C-12 3.34 -12 2.68 -12 2 C-9.69 2.33 -7.38 2.66 -5 3 C-5 2.34 -5 1.68 -5 1 C-3.35 1.33 -1.7 1.66 0 2 C0 1.34 0 0.68 0 0 Z " fill="#4A5874" transform="translate(772,337)"/>
<path d="M0 0 C0.33 0.66 0.66 1.32 1 2 C1.66 2.33 2.32 2.66 3 3 C2.54753906 3.40992188 2.09507812 3.81984375 1.62890625 4.2421875 C-0.10984262 6.1185352 -1.00573394 7.80610443 -2.0625 10.125 C-3.77935943 13.88967972 -3.77935943 13.88967972 -6 15 C-4.40109514 9.80355921 -2.25861997 4.93387858 0 0 Z " fill="#D2D6DD" transform="translate(926,206)"/>
<path d="M0 0 C-0.98742187 0.20496094 -1.97484375 0.40992188 -2.9921875 0.62109375 C-4.27351562 0.89050781 -5.55484375 1.15992188 -6.875 1.4375 C-8.15117188 1.70433594 -9.42734375 1.97117187 -10.7421875 2.24609375 C-13.86460244 2.8347826 -13.86460244 2.8347826 -16 4 C-17.67654729 3.72057545 -19.34608154 3.39171753 -21 3 C-21 2.67 -21 2.34 -21 2 C-18.25162151 1.46892686 -15.50187625 0.94984119 -12.75 0.4375 C-11.97269531 0.28603516 -11.19539062 0.13457031 -10.39453125 -0.02148438 C-9.64042969 -0.16005859 -8.88632812 -0.29863281 -8.109375 -0.44140625 C-7.07248535 -0.63778687 -7.07248535 -0.63778687 -6.01464844 -0.83813477 C-3.78712058 -1.01710362 -2.12493038 -0.65206197 0 0 Z " fill="#C3C9D4" transform="translate(732,1083)"/>
<path d="M0 0 C0.99 0.33 1.98 0.66 3 1 C2.02526874 2.66926454 1.04510211 4.33535642 0.0625 6 C-0.75541016 7.3921875 -0.75541016 7.3921875 -1.58984375 8.8125 C-2.05519531 9.534375 -2.52054688 10.25625 -3 11 C-3.33 11 -3.66 11 -4 11 C-3.67 8.03 -3.34 5.06 -3 2 C-2.01 1.67 -1.02 1.34 0 1 C0 0.67 0 0.34 0 0 Z " fill="#8E5A35" transform="translate(635,461)"/>
<path d="M0 0 C1.25087034 3.61362542 0.66827752 6.28734713 0 10 C-0.03703069 11.99965715 -0.04760556 14.00056665 0 16 C-0.33 16 -0.66 16 -1 16 C-2.1732849 11.45352102 -2.54128467 6.66972706 -2 2 C-1.34 1.34 -0.68 0.68 0 0 Z " fill="#D3844E" transform="translate(251,747)"/>
<path d="M0 0 C0.33 0.99 0.66 1.98 1 3 C-2.19990508 5.74277578 -5.00499382 7.6302836 -9 9 C-6.31941902 5.42589203 -3.57410797 2.68058098 0 0 Z " fill="#E38F4A" transform="translate(351,506)"/>
<path d="M0 0 C0 0.66 0 1.32 0 2 C-0.99 2.495 -0.99 2.495 -2 3 C-2.72159424 4.64363134 -3.39351421 6.31050386 -4 8 C-4.66 7.67 -5.32 7.34 -6 7 C-6 5.35 -6 3.7 -6 2 C-2.25 0 -2.25 0 0 0 Z " fill="#DE8A40" transform="translate(679,463)"/>
<path d="M0 0 C-0.33 0.33 -0.66 0.66 -1 1 C-0.34 1.66 0.32 2.32 1 3 C0 4 0 4 -3.0625 4.0625 C-4.031875 4.041875 -5.00125 4.02125 -6 4 C-6.33 3.01 -6.66 2.02 -7 1 C-3.375 -1.125 -3.375 -1.125 0 0 Z " fill="#182E4B" transform="translate(391,283)"/>
<path d="M0 0 C0 0.33 0 0.66 0 1 C-1.5778125 1.37125 -1.5778125 1.37125 -3.1875 1.75 C-6.8133541 2.76700786 -9.19910772 4.45373429 -12 7 C-12 4 -12 4 -9.9375 1.8125 C-6.3675734 -0.39022067 -4.12146058 -0.32325181 0 0 Z " fill="#3C4354" transform="translate(582,452)"/>
<path d="M0 0 C0.66 0.33 1.32 0.66 2 1 C-1.49087093 5.0042343 -3.64951939 6.62671065 -9 7 C-6.25604436 4.05278838 -3.61662784 1.80831392 0 0 Z " fill="#2F4564" transform="translate(339,265)"/>
<path d="M0 0 C0.66 0.33 1.32 0.66 2 1 C0.69277162 4.92168514 -1.38141513 6.19070756 -5 8 C-5.66 7.34 -6.32 6.68 -7 6 C-4.69 4.02 -2.38 2.04 0 0 Z " fill="#2A3F5E" transform="translate(279,307)"/>
<path d="M0 0 C0.66 0 1.32 0 2 0 C2.268125 0.969375 2.53625 1.93875 2.8125 2.9375 C3.204375 3.948125 3.59625 4.95875 4 6 C4.99 6.33 5.98 6.66 7 7 C4.625 7.125 4.625 7.125 2 7 C0 5 0 5 -0.125 2.375 C-0.08375 1.59125 -0.0425 0.8075 0 0 Z " fill="#343B50" transform="translate(576,512)"/>
<path d="M0 0 C-1.28813342 0.83878455 -2.58063256 1.67086783 -3.875 2.5 C-4.59429688 2.9640625 -5.31359375 3.428125 -6.0546875 3.90625 C-8 5 -8 5 -10 5 C-9 2 -9 2 -6.6875 0.25 C-3.67809479 -1.14972335 -3.01958327 -0.95287489 0 0 Z " fill="#2C3F5C" transform="translate(674,359)"/>
<path d="M0 0 C0.66 0.99 1.32 1.98 2 3 C0.68 5.31 -0.64 7.62 -2 10 C-2.66 9.34 -3.32 8.68 -4 8 C-2.68 5.36 -1.36 2.72 0 0 Z " fill="#76A569" transform="translate(906,216)"/>
<path d="M0 0 C0 0.33 0 0.66 0 1 C-1.98 1 -3.96 1 -6 1 C-6.33 1.99 -6.66 2.98 -7 4 C-7.66 4 -8.32 4 -9 4 C-9.33 5.32 -9.66 6.64 -10 8 C-10.21917317 5.29686424 -10.32851983 3.56041618 -8.9375 1.1875 C-6.00731249 -0.60842137 -3.3527047 -0.18977574 0 0 Z " fill="#6D4E41" transform="translate(802,973)"/>
<path d="M0 0 C1.2065625 0.0309375 1.2065625 0.0309375 2.4375 0.0625 C1.1175 0.3925 -0.2025 0.7225 -1.5625 1.0625 C-1.8925 3.0425 -2.2225 5.0225 -2.5625 7.0625 C-3.5525 6.7325 -4.5425 6.4025 -5.5625 6.0625 C-3.26136364 0.07954545 -3.26136364 0.07954545 0 0 Z " fill="#765142" transform="translate(687.5625,749.9375)"/>
<path d="M0 0 C2.93200474 2.85276137 5.64315404 5.65079784 8 9 C7.01 9 6.02 9 5 9 C0 3.76744186 0 3.76744186 0 0 Z " fill="#DD7D36" transform="translate(957,543)"/>
<path d="M0 0 C0.66 0.33 1.32 0.66 2 1 C0.02 3.31 -1.96 5.62 -4 8 C-4.66 7.34 -5.32 6.68 -6 6 C-4.02 4.02 -2.04 2.04 0 0 Z " fill="#263C5C" transform="translate(268,316)"/>
<path d="M0 0 C0.66 0.33 1.32 0.66 2 1 C-2.30769231 4.93846154 -2.30769231 4.93846154 -5.8125 5.25 C-6.534375 5.1675 -7.25625 5.085 -8 5 C-5.45378681 2.99940392 -3.01962385 1.20784954 0 0 Z " fill="#D68A4D" transform="translate(444,444)"/>
<path d="M0 0 C-2.55068845 2.35448165 -3.71017358 2.98327924 -7.25 3.1875 C-8.1575 3.125625 -9.065 3.06375 -10 3 C-4.375 -1.3125 -4.375 -1.3125 0 0 Z " fill="#E4E6EB" transform="translate(686,355)"/>
<path d="M0 0 C0.33 0 0.66 0 1 0 C1.3125 2.3125 1.3125 2.3125 1 5 C-1.5 6.8125 -1.5 6.8125 -4 8 C-2.87548273 5.0280615 -1.77706209 2.66559313 0 0 Z " fill="#E08B47" transform="translate(289,575)"/>
<path d="M0 0 C0 0.33 0 0.66 0 1 C-5.16044765 2.512545 -8.65998179 3.33500455 -14 2 C-14 1.67 -14 1.34 -14 1 C-9.23692563 0.04738513 -4.8333472 -0.08333357 0 0 Z " fill="#3D5D5F" transform="translate(720,334)"/>
</svg>
